<?xml version="1.0" standalone="no"?><!DOCTYPE svg PUBLIC "-//W3C//DTD SVG 1.1//EN" "http://www.w3.org/Graphics/SVG/1.1/DTD/svg11.dtd"><svg t="1648817107381" class="icon" viewBox="0 0 1024 1024" version="1.1" xmlns="http://www.w3.org/2000/svg" p-id="2638" xmlns:xlink="http://www.w3.org/1999/xlink" width="200" height="200"><defs><style type="text/css">@font-face { font-family: feedback-iconfont; src: url("//at.alicdn.com/t/font_1031158_u69w8yhxdu.woff2?t=1630033759944") format("woff2"), url("//at.alicdn.com/t/font_1031158_u69w8yhxdu.woff?t=1630033759944") format("woff"), url("//at.alicdn.com/t/font_1031158_u69w8yhxdu.ttf?t=1630033759944") format("truetype"); }
</style></defs><path d="M942.545455 293.236364c-9.309091-4.654545-16.290909-13.963636-16.29091-25.6V223.418182c0-121.018182-4.654545-128-139.636363-128h-162.909091c-65.163636 0-104.727273 23.272727-183.854546 102.4l-32.581818 32.581818L83.781818 563.2c-9.309091 6.981818-13.963636 18.618182-13.963636 32.581818 0 11.636364 9.309091 20.945455 16.290909 27.927273l325.818182 314.181818c4.654545 4.654545 9.309091 6.981818 16.290909 9.309091 9.309091 2.327273 18.618182 0 27.927273-2.327273 6.981818-2.327273 16.290909-6.981818 20.945454-9.309091l397.963636-388.654545c39.563636-39.563636 48.872727-72.145455 51.2-118.690909 0-16.290909 16.290909-27.927273 32.581819-25.6 13.963636 2.327273 23.272727 13.963636 20.945454 27.927273-2.327273 69.818182-23.272727 109.381818-81.454545 167.563636L523.636364 963.490909c-51.2 51.2-97.745455 60.509091-162.909091 0l-302.545455-293.236364c-20.945455-20.945455-46.545455-41.890909-44.218182-81.454545 2.327273-30.254545 23.272727-60.509091 44.218182-81.454545L393.309091 169.890909c74.472727-74.472727 130.327273-128 223.418182-128H768c207.127273-6.981818 218.763636 34.909091 214.109091 193.163636v34.909091c-2.327273 18.618182-20.945455 30.254545-39.563636 23.272728zM442.181818 923.927273" fill="#AAAAAA" p-id="2639"></path><path d="M518.981818 830.836364c-13.963636 4.654545-27.927273-4.654545-32.581818-18.618182-4.654545-13.963636 4.654545-27.927273 18.618182-32.581818 13.963636-4.654545 27.927273 4.654545 32.581818 18.618181 4.654545 13.963636-4.654545 27.927273-18.618182 32.581819zM549.236364 733.090909l153.6-148.945454c11.636364-9.309091 27.927273-9.309091 37.236363 0 9.309091 11.636364 9.309091 27.927273 0 37.236363l-153.6 148.945455c-11.636364 9.309091-27.927273 9.309091-37.236363 0-11.636364-11.636364-11.636364-27.927273 0-37.236364zM791.272727 269.963636c-11.636364-32.581818-48.872727-48.872727-81.454545-37.236363s-48.872727 48.872727-37.236364 81.454545 48.872727 48.872727 81.454546 37.236364c34.909091-11.636364 51.2-48.872727 37.236363-81.454546z m-48.872727 48.872728c-13.963636 4.654545-30.254545-2.327273-34.909091-16.290909-4.654545-13.963636 2.327273-30.254545 16.290909-34.909091 13.963636-4.654545 30.254545 2.327273 34.909091 16.290909 4.654545 13.963636-2.327273 27.927273-16.290909 34.909091z" fill="#AAAAAA" p-id="2640"></path></svg>